<?xml version="1.0" encoding="UTF-8" standalone="no"?>
<!-- Created with Inkscape (http://www.inkscape.org/) -->

<svg
   xmlns:dc="http://purl.org/dc/elements/1.1/"
   xmlns:cc="http://creativecommons.org/ns#"
   xmlns:rdf="http://www.w3.org/1999/02/22-rdf-syntax-ns#"
   xmlns:svg="http://www.w3.org/2000/svg"
   xmlns="http://www.w3.org/2000/svg"
   xmlns:sodipodi="http://sodipodi.sourceforge.net/DTD/sodipodi-0.dtd"
   xmlns:inkscape="http://www.inkscape.org/namespaces/inkscape"
   width="3240.8616"
   height="928.86298"
   viewBox="0 0 3240.8616 928.86297"
   id="svg2"
   version="1.1"
   inkscape:version="0.48.5 r10040"
   sodipodi:docname="logosvg.svg"
   inkscape:export-filename="/home/adderou/Logos/Diario/Logo-Diario.png"
   inkscape:export-xdpi="90"
   inkscape:export-ydpi="90">
  <defs
     id="defs4" />
  <sodipodi:namedview
     id="base"
     pagecolor="#ffffff"
     bordercolor="#666666"
     borderopacity="1.0"
     inkscape:pageopacity="0.0"
     inkscape:pageshadow="2"
     inkscape:zoom="0.4665165"
     inkscape:cx="1480.89"
     inkscape:cy="721.29881"
     inkscape:document-units="px"
     inkscape:current-layer="g4345"
     showgrid="false"
     showguides="false"
     fit-margin-top="0"
     fit-margin-left="0"
     fit-margin-right="0"
     fit-margin-bottom="0"
     inkscape:window-width="658"
     inkscape:window-height="728"
     inkscape:window-x="688"
     inkscape:window-y="20"
     inkscape:window-maximized="0" />
  <metadata
     id="metadata7">
    <rdf:RDF>
      <cc:Work
         rdf:about="">
        <dc:format>image/svg+xml</dc:format>
        <dc:type
           rdf:resource="http://purl.org/dc/dcmitype/StillImage" />
        <dc:title></dc:title>
      </cc:Work>
    </rdf:RDF>
  </metadata>
  <g
     inkscape:label="Layer 1"
     inkscape:groupmode="layer"
     id="layer1"
     transform="translate(95.421791,-44.356524)">
    <g
       id="g4345">
      <g
         id="g3358"
         transform="translate(-25.722563,10.717735)">
        <path
           style="fill:#ffffff;fill-opacity:1;stroke:none"
           d="m 658.3934,147.58354 a 43.238113,43.238113 0 0 0 -38.89711,40.02679 L 490.24876,798.29867 a 43.238113,43.238113 0 0 0 -19.99167,-2.83443 43.238113,43.238113 0 0 0 -38.84615,47.22367 43.238113,43.238113 0 0 0 47.22366,38.84615 43.238113,43.238113 0 0 0 38.32257,-35.36522 L 644.18521,229.69189 a 43.238113,43.238113 0 0 0 22.58571,3.96147 43.238113,43.238113 0 0 0 38.84615,-47.22367 43.238113,43.238113 0 0 0 -47.22367,-38.84615 z"
           id="path4243"
           inkscape:connector-curvature="0" />
        <g
           id="g3347">
          <path
             sodipodi:nodetypes="ccccc"
             inkscape:connector-curvature="0"
             id="path3347"
             d="m 114.2551,296.44828 16.24243,-69.69697 423.69697,0 -17.75758,69.69697 z"
             style="fill:#6a6ab4;fill-opacity:1;fill-rule:evenodd;stroke:none" />
          <path
             sodipodi:nodetypes="ccccc"
             inkscape:connector-curvature="0"
             id="path4149"
             d="m 57.95349,524.18923 289.98006,0 44.5464,-200.26074 -283.98007,0 z"
             style="fill:#e68320;fill-opacity:1;fill-rule:evenodd;stroke:none" />
          <g
             id="g3339">
            <path
               style="fill:#00a7ca;fill-opacity:1;fill-rule:evenodd;stroke:none"
               d="m 411.15207,402.99763 4.5163,-23.89475 100.40606,0 -4.79199,25.03259 z"
               id="path4151"
               inkscape:connector-curvature="0"
               sodipodi:nodetypes="ccccc" />
            <path
               style="fill:#00a7ca;fill-opacity:1;fill-rule:evenodd;stroke:none"
               d="m 39.835668,584.49503 4.629613,-23.89475 432.267829,0 -4.88808,25.03259 z"
               id="path4151-5-8-7"
               inkscape:connector-curvature="0"
               sodipodi:nodetypes="ccccc" />
            <path
               style="fill:#00a7ca;fill-opacity:1;fill-rule:evenodd;stroke:none"
               d="m 398.38902,460.81489 4.5163,-23.89475 100.40606,0 -4.79199,25.03259 z"
               id="path4151-56"
               inkscape:connector-curvature="0"
               sodipodi:nodetypes="ccccc" />
            <path
               style="fill:#00a7ca;fill-opacity:1;fill-rule:evenodd;stroke:none"
               d="m 386.01627,519.36216 4.5163,-23.89475 100.40606,0 -4.79199,25.03259 z"
               id="path4151-56-3"
               inkscape:connector-curvature="0"
               sodipodi:nodetypes="ccccc" />
            <path
               style="fill:#00a7ca;fill-opacity:1;fill-rule:evenodd;stroke:none"
               d="m 29.319378,643.66297 4.629613,-23.89475 432.267829,0 -4.88808,25.03259 z"
               id="path4151-5-8-7-3"
               inkscape:connector-curvature="0"
               sodipodi:nodetypes="ccccc" />
            <path
               style="fill:#00a7ca;fill-opacity:1;fill-rule:evenodd;stroke:none"
               d="m 15.665236,707.3823 4.629613,-23.89475 432.267831,0 -4.88808,25.03259 z"
               id="path4151-5-8-7-3-6"
               inkscape:connector-curvature="0"
               sodipodi:nodetypes="ccccc" />
          </g>
        </g>
      </g>
      <g
         style="font-size:375px;font-style:normal;font-weight:normal;line-height:125%;letter-spacing:0px;word-spacing:0px;fill:#00a7ca;fill-opacity:1;stroke:none;font-family:sans-serif"
         id="text4158"
         transform="matrix(0.96491052,0,0,0.96491052,1219.5641,-84.114933)">
        <path
           d="m 723.41315,487.25824 32.625,0 0,273.75 -32.625,0 0,-273.75"
           style="font-variant:normal;font-weight:bold;font-stretch:normal;fill:#00a7ca;font-family:TimeBurner;-inkscape-font-specification:TimeBurner Bold"
           id="path3237"
           inkscape:connector-curvature="0" />
        <path
           d="m 884.29401,569.38324 c 13.49988,1.9e-4 26.12487,2.62519 37.875,7.875 11.99985,5.00018 22.37484,11.87517 31.125,20.625 8.99982,8.75015 15.99981,19.12514 21,31.125 5.2498,12.00012 7.8748,24.75011 7.875,38.25 l 0,93.75 -32.25,0 0,-93.75 c -1.7e-4,-8.9999 -1.75017,-17.49989 -5.25,-25.5 -3.25016,-7.99987 -7.87515,-14.99987 -13.875,-21 -5.75014,-5.99985 -12.62514,-10.62485 -20.625,-13.875 -8.00012,-3.49984 -16.62511,-5.24984 -25.875,-5.25 -9.00009,1.6e-4 -17.50008,1.75016 -25.5,5.25 -8.00007,3.25015 -15.00006,7.87515 -21,13.875 -5.75005,6.00013 -10.37505,13.00013 -13.875,21 -3.50004,8.00011 -5.25004,16.5001 -5.25,25.5 l 0,93.75 -31.875,0 0,-93.75 c 0,-13.49989 2.49999,-26.24988 7.5,-38.25 5.24998,-11.99986 12.24998,-22.37485 21,-31.125 8.99996,-8.74983 19.37495,-15.62482 31.125,-20.625 11.74992,-5.24981 24.37491,-7.87481 37.875,-7.875"
           style="font-variant:normal;font-weight:bold;font-stretch:normal;fill:#00a7ca;font-family:TimeBurner;-inkscape-font-specification:TimeBurner Bold"
           id="path3239"
           inkscape:connector-curvature="0" />
        <path
           d="m 1017.1495,528.50824 32.25,0 0,45.75 65.625,0 0,31.875 -65.625,0 0,105.375 c -10e-5,5.50004 1.8749,10.25004 5.625,14.25 3.9999,3.75003 8.8749,5.62503 14.625,5.625 5.7499,3e-5 10.4999,-2.62497 14.25,-7.875 3.9999,-5.24996 5.9999,-11.62495 6,-19.125 l 31.875,0 c -10e-5,8.25005 -1.3751,16.00004 -4.125,23.25 -2.7501,7.00003 -6.5001,13.25002 -11.25,18.75 -4.5001,5.25001 -10.0001,9.5 -16.5,12.75 -6.2501,3 -13.0001,4.5 -20.25,4.5 -7.2501,0 -14.1251,-1.375 -20.625,-4.125 -6.2501,-2.75 -11.75,-6.49999 -16.5,-11.25 -4.75,-4.74998 -8.5,-10.24998 -11.25,-16.5 -2.75,-6.24996 -4.125,-12.99996 -4.125,-20.25 l 0,-183"
           style="font-variant:normal;font-weight:bold;font-stretch:normal;fill:#00a7ca;font-family:TimeBurner;-inkscape-font-specification:TimeBurner Bold"
           id="path3241"
           inkscape:connector-curvature="0" />
        <path
           d="m 1298.8565,651.88324 c -2.0002,-6.99988 -5.0002,-13.49988 -9,-19.5 -3.7501,-6.24987 -8.3751,-11.49986 -13.875,-15.75 -5.5001,-4.49985 -11.7501,-7.99985 -18.75,-10.5 -6.7501,-2.49984 -14.0001,-3.74984 -21.75,-3.75 -7.7501,1.6e-4 -15.1251,1.25016 -22.125,3.75 -6.7501,2.50015 -12.8751,6.00015 -18.375,10.5 -5.5,4.25014 -10.25,9.50013 -14.25,15.75 -4,6.00012 -6.875,12.50012 -8.625,19.5 l 126.75,0 m -63.375,113.625 c -13.5001,0 -26.2501,-2.5 -38.25,-7.5 -11.75,-5.24999 -22.125,-12.24999 -31.125,-21 -8.75,-8.99997 -15.75,-19.37496 -21,-31.125 -5,-11.74993 -7.5,-24.37492 -7.5,-37.875 0,-13.49989 2.5,-26.24988 7.5,-38.25 5.25,-11.99986 12.25,-22.37485 21,-31.125 9,-8.74983 19.375,-15.62482 31.125,-20.625 11.9999,-5.24981 24.7499,-7.87481 38.25,-7.875 13.4999,1.9e-4 26.1249,2.62519 37.875,7.875 11.9999,5.00018 22.3748,11.87517 31.125,20.625 8.7498,8.75015 15.6248,19.12514 20.625,31.125 5.2498,12.00012 7.8748,24.75011 7.875,38.25 -2e-4,1.75009 -2e-4,3.62509 0,5.625 -2e-4,2.00009 -0.2502,5.37508 -0.75,10.125 l -160.125,0 c 1.75,7.25007 4.625,13.87506 8.625,19.875 4,6.00005 8.75,11.25005 14.25,15.75 5.4999,4.50004 11.6249,8.00003 18.375,10.5 6.9999,2.50003 14.3749,3.75003 22.125,3.75 5.9999,3e-5 11.9999,-1.49997 18,-4.5 5.9999,-3.24997 11.7499,-7.49996 17.25,-12.75 l 22.5,22.5 c -8.2501,8.00001 -17.3751,14.50001 -27.375,19.5 -9.7501,4.75 -19.8751,7.125 -30.375,7.125"
           style="font-variant:normal;font-weight:bold;font-stretch:normal;fill:#00a7ca;font-family:TimeBurner;-inkscape-font-specification:TimeBurner Bold"
           id="path3243"
           inkscape:connector-curvature="0" />
        <path
           d="m 1460.6924,570.13324 c 13.4999,1.9e-4 26.1249,2.62519 37.875,7.875 11.9999,5.00018 22.3749,11.87517 31.125,20.625 8.9999,8.75015 15.9999,19.12514 21,31.125 5.2499,12.00012 7.8748,24.75011 7.875,38.25 -2e-4,18.00007 -4.3751,34.37506 -13.125,49.125 -8.5001,14.75003 -20.1251,26.37502 -34.875,34.875 7.2499,7 13.2499,15.37499 18,25.125 4.7499,9.99997 7.1249,20.49996 7.125,31.5 -10e-5,10.24994 -2.1251,19.87493 -6.375,28.875 -4.2501,9.24991 -10.1251,17.24991 -17.625,24 -7.5001,6.74989 -16.2501,12.12489 -26.25,16.125 -9.7501,3.99988 -20.2501,5.99988 -31.5,6 l 0,-31.875 c 6.7499,-9e-5 13.1249,-1.12509 19.125,-3.375 6.2499,-2.25009 11.6249,-5.37508 16.125,-9.375 4.4999,-4.00007 7.9999,-8.62507 10.5,-13.875 2.7499,-5.00006 4.1249,-10.50005 4.125,-16.5 -10e-5,-6.00004 -1.1251,-11.62504 -3.375,-16.875 -2.2501,-5.00003 -5.3751,-9.50002 -9.375,-13.5 -4.0001,-4.00001 -8.6251,-7.12501 -13.875,-9.375 -5.0001,-2.25001 -10.5001,-3.375 -16.5,-3.375 -13.5,0 -26.125,-2.5 -37.875,-7.5 -11.75,-5.24999 -22.125,-12.24999 -31.125,-21 -8.75,-8.99997 -15.75,-19.37496 -21,-31.125 -5,-11.74993 -7.5,-24.37492 -7.5,-37.875 0,-13.49989 2.5,-26.24988 7.5,-38.25 5.25,-11.99986 12.25,-22.37485 21,-31.125 9,-8.74983 19.375,-15.62482 31.125,-20.625 11.75,-5.24981 24.375,-7.87481 37.875,-7.875 m 0,32.25 c -9,1.6e-4 -17.5,1.75016 -25.5,5.25 -8,3.25015 -15,7.87515 -21,13.875 -5.75,6.00013 -10.375,13.00013 -13.875,21 -3.5,8.00011 -5.25,16.5001 -5.25,25.5 0,9.00008 1.75,17.50008 5.25,25.5 3.5,8.00006 8.125,15.00005 13.875,21 6,5.75004 13,10.37504 21,13.875 8,3.50003 16.5,5.25003 25.5,5.25 9.2499,3e-5 17.8749,-1.74997 25.875,-5.25 7.9999,-3.49996 14.8749,-8.12496 20.625,-13.875 5.9999,-5.99995 10.6249,-12.99994 13.875,-21 3.4999,-7.99992 5.2499,-16.49992 5.25,-25.5 -10e-5,-8.9999 -1.7501,-17.49989 -5.25,-25.5 -3.2501,-7.99987 -7.8751,-14.99987 -13.875,-21 -5.7501,-5.99985 -12.6251,-10.62485 -20.625,-13.875 -8.0001,-3.49984 -16.6251,-5.24984 -25.875,-5.25"
           style="font-variant:normal;font-weight:bold;font-stretch:normal;fill:#00a7ca;font-family:TimeBurner;-inkscape-font-specification:TimeBurner Bold"
           id="path3245"
           inkscape:connector-curvature="0" />
        <path
           d="m 1626.8878,761.00824 -32.25,0 0,-93.75 c 0,-13.49989 2.75,-26.24988 8.25,-38.25 5.4999,-11.99986 12.9999,-22.37485 22.5,-31.125 9.4999,-8.74983 20.4999,-15.62482 33,-20.625 12.7499,-5.24981 26.3749,-7.87481 40.875,-7.875 l 0,32.25 c -10.0001,1.6e-4 -19.3751,1.75016 -28.125,5.25 -8.7501,3.25015 -16.5001,7.87515 -23.25,13.875 -6.5001,6.00013 -11.6251,13.00013 -15.375,21 -3.7501,8.00011 -5.6251,16.5001 -5.625,25.5 l 0,93.75"
           style="font-variant:normal;font-weight:bold;font-stretch:normal;fill:#00a7ca;font-family:TimeBurner;-inkscape-font-specification:TimeBurner Bold"
           id="path3247"
           inkscape:connector-curvature="0" />
        <path
           d="m 1803.0557,569.00824 c 13.4999,1.9e-4 26.2499,2.62519 38.25,7.875 11.9999,5.00018 22.3749,12.00017 31.125,21 8.9999,8.75015 15.9998,19.12514 21,31.125 5.2498,11.75012 7.8748,24.37511 7.875,37.875 l 0,93.75 -32.625,0 0,-21 c -8.7501,7.75001 -18.7501,13.87501 -30,18.375 -11.0001,4.25 -22.8751,6.375 -35.625,6.375 -13.5001,0 -26.125,-2.5 -37.875,-7.5 -11.75,-5.24999 -22.125,-12.24998 -31.125,-21 -8.75,-8.74997 -15.75,-18.99996 -21,-30.75 -5,-11.99993 -7.5,-24.74992 -7.5,-38.25 0,-13.49989 2.5,-26.12488 7.5,-37.875 5.25,-11.99986 12.25,-22.37485 21,-31.125 9,-8.99983 19.375,-15.99982 31.125,-21 11.75,-5.24981 24.3749,-7.87481 37.875,-7.875 m 0,32.25 c -9.0001,1.6e-4 -17.5001,1.75016 -25.5,5.25 -8,3.25015 -15,7.87515 -21,13.875 -5.75,6.00013 -10.375,13.00013 -13.875,21 -3.5,8.00011 -5.25,16.5001 -5.25,25.5 0,9.00008 1.75,17.50008 5.25,25.5 3.5,8.00006 8.125,15.00005 13.875,21 6,5.75004 13,10.37504 21,13.875 7.9999,3.50003 16.4999,5.25003 25.5,5.25 9.2499,3e-5 17.8749,-1.74997 25.875,-5.25 7.9999,-3.49996 14.8749,-8.12496 20.625,-13.875 5.9999,-5.99995 10.6249,-12.99994 13.875,-21 3.4999,-7.99992 5.2499,-16.49992 5.25,-25.5 -10e-5,-8.9999 -1.7501,-17.49989 -5.25,-25.5 -3.2501,-7.99987 -7.8751,-14.99987 -13.875,-21 -5.7501,-5.99985 -12.6251,-10.62485 -20.625,-13.875 -8.0001,-3.49984 -16.6251,-5.24984 -25.875,-5.25"
           style="font-variant:normal;font-weight:bold;font-stretch:normal;fill:#00a7ca;font-family:TimeBurner;-inkscape-font-specification:TimeBurner Bold"
           id="path3249"
           inkscape:connector-curvature="0" />
        <path
           d="m 1936.6612,486.50824 31.875,0 0,225.75 c 0,5.75004 2.625,10.62504 7.875,14.625 5.4999,4.00003 11.9999,6.00003 19.5,6 l 0,31.875 c -8.2501,0 -16,-1.375 -23.25,-4.125 -7,-2.75 -13.25,-6.49999 -18.75,-11.25 -5.25,-4.74998 -9.5,-10.24998 -12.75,-16.5 -3,-6.49997 -4.5,-13.37496 -4.5,-20.625 l 0,-225.75"
           style="font-variant:normal;font-weight:bold;font-stretch:normal;fill:#00a7ca;font-family:TimeBurner;-inkscape-font-specification:TimeBurner Bold"
           id="path3251"
           inkscape:connector-curvature="0" />
      </g>
      <g
         id="text4162"
         style="font-size:375px;font-style:normal;font-variant:normal;font-weight:bold;font-stretch:normal;line-height:125%;letter-spacing:0px;word-spacing:0px;fill:#6a6ab4;fill-opacity:1;stroke:none;font-family:TimeBurner;-inkscape-font-specification:TimeBurner Bold"
         transform="matrix(0.96491052,0,0,0.96491052,-90.424688,301.36379)">
        <path
           inkscape:connector-curvature="0"
           id="path3219"
           d="m 798.81226,84.271423 169.875,0 0,32.999997 -137.25,0 0,87.375 120,0 0,33 -120,0 0,87.75 137.25,0 0,32.625 -169.875,0 0,-273.749997" />
        <path
           inkscape:connector-curvature="0"
           id="path3221"
           d="m 1002.408,83.521423 31.875,0 0,225.749997 c -10e-5,5.75005 2.6249,10.62504 7.875,14.625 5.4999,4.00003 11.9999,6.00003 19.5,6 l 0,31.875 c -8.2501,0 -16.0001,-1.375 -23.25,-4.125 -7.0001,-2.74999 -13.2501,-6.49999 -18.75,-11.25 -5.2501,-4.74998 -9.5,-10.24997 -12.75,-16.5 -3,-6.49996 -4.5,-13.37496 -4.5,-20.625 l 0,-225.749997" />
      </g>
      <g
         id="text3352"
         style="font-size:375px;font-style:normal;font-weight:normal;text-align:end;line-height:125%;letter-spacing:0px;word-spacing:0px;text-anchor:end;fill:#e68320;fill-opacity:1;stroke:none;font-family:sans-serif"
         transform="matrix(0.96491052,0,0,0.96491052,-25.032538,301.36379)">
        <path
           inkscape:connector-curvature="0"
           id="path3224"
           style="font-size:350px;font-variant:normal;font-weight:bold;font-stretch:normal;fill:#e68320;font-family:TimeBurner;-inkscape-font-specification:TimeBurner Bold"
           d="m 1102.7882,327.92142 56.35,0 c 8.6332,3e-5 16.6832,-1.6333 24.15,-4.9 7.6998,-3.26663 14.3498,-7.69995 19.95,-13.3 5.8332,-5.83328 10.3832,-12.48327 13.65,-19.95 3.2665,-7.69992 4.8998,-15.86658 4.9,-24.5 l 0,-69.3 c -2e-4,-8.63316 -1.6335,-16.68315 -4.9,-24.15 -3.2668,-7.6998 -7.8168,-14.3498 -13.65,-19.95 -5.6002,-5.59978 -12.2502,-10.03311 -19.95,-13.3 -7.4668,-3.26644 -15.5168,-4.89977 -24.15,-4.9 l -56.35,0 0,194.25 m -30.45,29.4 0,-254.45 86.8,0 c 12.8332,2.6e-4 24.8498,2.45026 36.05,7.35 11.4332,4.90025 21.3498,11.55024 29.75,19.95 8.3998,8.40022 15.0498,18.31688 19.95,29.75 4.8998,11.20019 7.3498,23.21684 7.35,36.05 l 0,69.3 c -2e-4,12.83342 -2.4502,24.96674 -7.35,36.4 -4.9002,11.20005 -11.5502,21.00004 -19.95,29.4 -8.4002,8.40002 -18.3168,15.05002 -29.75,19.95 -11.2002,4.90001 -23.2168,7.35 -36.05,7.35 l -86.8,-1.05" />
        <path
           inkscape:connector-curvature="0"
           id="path3226"
           style="font-size:350px;font-variant:normal;font-weight:bold;font-stretch:normal;fill:#e68320;font-family:TimeBurner;-inkscape-font-specification:TimeBurner Bold"
           d="m 1283.5522,183.02142 30.1,0 0,175 -30.1,0 0,-175 m 0,-81.2 30.1,0 0,40.6 -30.1,0 0,-40.6" />
        <path
           inkscape:connector-curvature="0"
           id="path3228"
           style="font-size:350px;font-variant:normal;font-weight:bold;font-stretch:normal;fill:#e68320;font-family:TimeBurner;-inkscape-font-specification:TimeBurner Bold"
           d="m 1432.2913,178.82142 c 12.5999,1.8e-4 24.4999,2.45018 35.7,7.35 11.1998,4.66684 20.8832,11.20016 29.05,19.6 8.3998,8.16681 14.9331,17.85014 19.6,29.05 4.8998,10.96678 7.3498,22.7501 7.35,35.35 l 0,87.5 -30.45,0 0,-19.6 c -8.1668,7.23335 -17.5001,12.95001 -28,17.15 -10.2668,3.96667 -21.3501,5.95 -33.25,5.95 -12.6001,0 -24.3834,-2.33333 -35.35,-7 -10.9667,-4.89999 -20.65,-11.43331 -29.05,-19.6 -8.1667,-8.16663 -14.7,-17.73329 -19.6,-28.7 -4.6667,-11.19993 -7,-23.09992 -7,-35.7 0,-12.5999 2.3333,-24.38322 7,-35.35 4.9,-11.19986 11.4333,-20.88319 19.6,-29.05 8.4,-8.39984 18.0833,-14.93316 29.05,-19.6 10.9666,-4.89982 22.7499,-7.34982 35.35,-7.35 m 0,30.1 c -8.4001,1.5e-4 -16.3334,1.63348 -23.8,4.9 -7.4667,3.03348 -14.0001,7.35014 -19.6,12.95 -5.3667,5.60013 -9.6834,12.13346 -12.95,19.6 -3.2667,7.46677 -4.9,15.4001 -4.9,23.8 0,8.40008 1.6333,16.33341 4.9,23.8 3.2666,7.46673 7.5833,14.00005 12.95,19.6 5.5999,5.36671 12.1333,9.68337 19.6,12.95 7.4666,3.2667 15.3999,4.90003 23.8,4.9 8.6332,3e-5 16.6832,-1.6333 24.15,-4.9 7.4665,-3.26663 13.8832,-7.58329 19.25,-12.95 5.5998,-5.59995 9.9165,-12.13327 12.95,-19.6 3.2665,-7.46659 4.8998,-15.39992 4.9,-23.8 -2e-4,-8.3999 -1.6335,-16.33323 -4.9,-23.8 -3.0335,-7.46654 -7.3502,-13.99987 -12.95,-19.6 -5.3668,-5.59986 -11.7835,-9.91652 -19.25,-12.95 -7.4668,-3.26652 -15.5168,-4.89985 -24.15,-4.9" />
        <path
           inkscape:connector-curvature="0"
           id="path3230"
           style="font-size:350px;font-variant:normal;font-weight:bold;font-stretch:normal;fill:#e68320;font-family:TimeBurner;-inkscape-font-specification:TimeBurner Bold"
           d="m 1587.7897,358.02142 -30.1,0 0,-87.5 c 0,-12.5999 2.5667,-24.49988 7.7,-35.7 5.1333,-11.19986 12.1333,-20.88319 21,-29.05 8.8667,-8.1665 19.1333,-14.58316 30.8,-19.25 11.8999,-4.89982 24.6166,-7.34982 38.15,-7.35 l 0,30.1 c -9.3334,1.5e-4 -18.0834,1.63348 -26.25,4.9 -8.1667,3.03348 -15.4,7.35014 -21.7,12.95 -6.0667,5.60013 -10.85,12.13346 -14.35,19.6 -3.5,7.46677 -5.25,15.4001 -5.25,23.8 l 0,87.5" />
        <path
           inkscape:connector-curvature="0"
           id="path3232"
           style="font-size:350px;font-variant:normal;font-weight:bold;font-stretch:normal;fill:#e68320;font-family:TimeBurner;-inkscape-font-specification:TimeBurner Bold"
           d="m 1683.4546,183.02142 30.1,0 0,175 -30.1,0 0,-175 m 0,-81.2 30.1,0 0,40.6 -30.1,0 0,-40.6" />
        <path
           inkscape:connector-curvature="0"
           id="path3234"
           style="font-size:350px;font-variant:normal;font-weight:bold;font-stretch:normal;fill:#e68320;font-family:TimeBurner;-inkscape-font-specification:TimeBurner Bold"
           d="m 1833.5936,179.17142 c 12.5999,1.8e-4 24.3832,2.45018 35.35,7.35 11.1999,4.66684 20.8832,11.0835 29.05,19.25 8.3999,8.16681 14.9332,17.85014 19.6,29.05 4.8998,11.20012 7.3498,23.1001 7.35,35.7 -2e-4,12.60008 -2.4502,24.50007 -7.35,35.7 -4.6668,10.96671 -11.2001,20.53337 -19.6,28.7 -8.1668,8.16668 -17.8501,14.70001 -29.05,19.6 -10.9668,4.66667 -22.7501,7 -35.35,7 -12.6001,0 -24.3834,-2.33333 -35.35,-7 -10.9667,-4.89999 -20.65,-11.43332 -29.05,-19.6 -8.1667,-8.16663 -14.7,-17.73329 -19.6,-28.7 -4.6666,-11.19993 -7,-23.09992 -7,-35.7 0,-12.5999 2.3334,-24.49988 7,-35.7 4.9,-11.19986 11.4333,-20.88319 19.6,-29.05 8.4,-8.1665 18.0833,-14.58316 29.05,-19.25 10.9666,-4.89982 22.7499,-7.34982 35.35,-7.35 m 0,30.1 c -8.4001,1.5e-4 -16.3334,1.63348 -23.8,4.9 -7.4667,3.03348 -14,7.35014 -19.6,12.95 -5.6,5.60013 -10.0333,12.13346 -13.3,19.6 -3.0333,7.46677 -4.55,15.4001 -4.55,23.8 0,8.40008 1.5167,16.33341 4.55,23.8 3.2667,7.46673 7.7,14.00005 13.3,19.6 5.6,5.36671 12.1333,9.68337 19.6,12.95 7.4666,3.2667 15.3999,4.90003 23.8,4.9 8.3999,3e-5 16.3333,-1.6333 23.8,-4.9 7.4666,-3.26663 13.9999,-7.58329 19.6,-12.95 5.5999,-5.59995 9.9166,-12.13327 12.95,-19.6 3.2665,-7.46659 4.8999,-15.39992 4.9,-23.8 -10e-5,-8.3999 -1.6335,-16.33323 -4.9,-23.8 -3.0334,-7.46654 -7.3501,-13.99987 -12.95,-19.6 -5.6001,-5.59986 -12.1334,-9.91652 -19.6,-12.95 -7.4667,-3.26652 -15.4001,-4.89985 -23.8,-4.9" />
      </g>
    </g>
  </g>
</svg>
